<svg width="900" height="500" viewBox="0 0 900 500" fill="none" xmlns="http://www.w3.org/2000/svg">
<path d="M27.4 320.4C15.2667 320.4 9.2 319.067 9.2 316.4V186.8C9.2 182.267 11.2667 180 15.4 180H50.6C70.3333 180 84.5333 184.067 93.2 192.2C102 200.333 106.4 212.133 106.4 227.6C106.4 240.4 102.267 252.133 94 262.8C89.8667 268.133 83.8 272.4 75.8 275.6C67.8 278.8 58.4667 280.4 47.8 280.4V316.2C47.8 317.8 45.2667 318.933 40.2 319.6C35.2667 320.133 31 320.4 27.4 320.4ZM47.8 214.8V246.4H50.4C55.0667 246.4 59 244.933 62.2 242C65.4 239.067 67 234.933 67 229.6C67 224.267 65.8667 220.467 63.6 218.2C61.4667 215.933 57.6 214.8 52 214.8H47.8ZM126.584 308.2C118.318 299 114.184 286.267 114.184 270C114.184 253.733 118.318 241 126.584 231.8C134.984 222.6 146.251 218 160.384 218C174.518 218 185.718 222.6 193.984 231.8C202.251 241 206.384 253.733 206.384 270C206.384 286.267 202.251 299 193.984 308.2C185.718 317.4 174.518 322 160.384 322C146.251 322 134.984 317.4 126.584 308.2ZM160.384 251.4C152.918 251.4 149.184 257.533 149.184 269.8C149.184 282.067 152.918 288.2 160.384 288.2C167.984 288.2 171.784 282.067 171.784 269.8C171.784 257.533 167.984 251.4 160.384 251.4ZM264.323 319.8C264.323 320.733 258.257 321.2 246.123 321.2C233.99 320.933 227.923 320.4 227.923 319.6V253.2H222.523C220.39 253.2 218.657 251.933 217.323 249.4C216.123 246.733 215.523 243.467 215.523 239.6C215.523 225.2 219.79 218 228.323 218C234.323 218 239.323 219.867 243.323 223.6C247.323 227.2 249.323 231.333 249.323 236C252.123 230.533 255.857 226.2 260.523 223C265.323 219.667 270.19 218 275.123 218C282.857 218 287.523 220 289.123 224C289.523 225.067 289.723 226.667 289.723 228.8C289.723 230.8 289.057 234.467 287.723 239.8C286.523 245.133 285.257 249 283.923 251.4C282.59 253.8 281.79 255 281.523 255C281.257 255 279.99 254.533 277.723 253.6C275.59 252.533 273.657 252 271.923 252C266.857 252 264.323 256 264.323 264V319.8ZM345.82 318.8C345.82 320.4 340.22 321.2 329.02 321.2C315.687 320.667 309.02 319.8 309.02 318.6V247.8H298.82C296.154 247.8 294.82 243.2 294.82 234C294.82 231.6 295.02 228.667 295.42 225.2C295.954 221.733 296.954 220 298.42 220H309.02V202.4C309.02 199.733 314.62 198.4 325.82 198.4C337.154 198.4 342.82 199.467 342.82 201.6V214.4L343.02 220H360.02C362.287 220 363.42 224.667 363.42 234C363.42 243.333 362.287 248 360.02 248H345.82V318.8ZM382.053 308.2C373.786 299 369.653 286.267 369.653 270C369.653 253.733 373.786 241 382.053 231.8C390.453 222.6 401.72 218 415.853 218C429.986 218 441.186 222.6 449.453 231.8C457.72 241 461.853 253.733 461.853 270C461.853 286.267 457.72 299 449.453 308.2C441.186 317.4 429.986 322 415.853 322C401.72 322 390.453 317.4 382.053 308.2ZM415.853 251.4C408.386 251.4 404.653 257.533 404.653 269.8C404.653 282.067 408.386 288.2 415.853 288.2C423.453 288.2 427.253 282.067 427.253 269.8C427.253 257.533 423.453 251.4 415.853 251.4ZM483.792 246.6H473.992C471.992 246.6 470.992 242.2 470.992 233.4C470.992 224.467 471.992 220 473.992 220H483.792V215.6C483.792 201.467 486.726 191.733 492.592 186.4C498.592 180.933 506.926 178.2 517.592 178.2C528.259 178.2 537.659 180.133 545.792 184C546.859 184.4 547.392 185.867 547.392 188.4C547.392 190.8 546.259 194.733 543.992 200.2C541.726 205.667 539.792 208.8 538.192 209.6C533.659 206.8 528.992 205.4 524.192 205.4C518.992 205.4 516.392 208.867 516.392 215.8V220H532.992C535.392 220 536.592 224.267 536.592 232.8C536.592 242.133 535.059 246.8 531.992 246.8H519.192V317.6C519.192 319.2 513.259 320 501.392 320C489.659 320 483.792 319.2 483.792 317.6V246.6ZM554.514 308.2C546.247 299 542.114 286.267 542.114 270C542.114 253.733 546.247 241 554.514 231.8C562.914 222.6 574.181 218 588.314 218C602.447 218 613.647 222.6 621.914 231.8C630.181 241 634.314 253.733 634.314 270C634.314 286.267 630.181 299 621.914 308.2C613.647 317.4 602.447 322 588.314 322C574.181 322 562.914 317.4 554.514 308.2ZM588.314 251.4C580.847 251.4 577.114 257.533 577.114 269.8C577.114 282.067 580.847 288.2 588.314 288.2C595.914 288.2 599.714 282.067 599.714 269.8C599.714 257.533 595.914 251.4 588.314 251.4ZM684.853 318.4C684.853 319.6 678.053 320.2 664.453 320.2C653.786 320.067 648.453 319.533 648.453 318.6V182.4C648.453 180.4 654.92 179.4 667.853 179.4C679.186 179.8 684.853 180.467 684.853 181.4V318.4ZM739.545 318.8C739.545 319.867 733.412 320.4 721.145 320.4C709.012 320.4 702.945 319.933 702.945 319V220.8C702.945 219.867 709.012 219.4 721.145 219.4C733.412 219.4 739.545 219.8 739.545 220.6V318.8ZM739.545 208.8C739.545 209.733 733.412 210.2 721.145 210.2C709.012 210.2 702.945 209.8 702.945 209V180.2C702.945 178.867 709.012 178.2 721.145 178.2C733.412 178.2 739.545 178.6 739.545 179.4V208.8Z" fill="url(#paint0_linear_404_2)"/>
<path d="M818.68 324.625C854.923 324.625 884.305 295.244 884.305 259C884.305 222.756 854.923 193.375 818.68 193.375C782.436 193.375 753.055 222.756 753.055 259C753.055 295.244 782.436 324.625 818.68 324.625Z" fill="#613DE0"/>
<path d="M809.305 227.75H828.055V290.25H809.305V227.75Z" fill="white"/>
<path d="M787.43 249.625H849.929V268.375H787.43V249.625Z" fill="white"/>
<defs>
<linearGradient id="paint0_linear_404_2" x1="607.5" y1="250" x2="2.44375e-06" y2="250" gradientUnits="userSpaceOnUse">
<stop stop-color="#613DE0"/>
<stop offset="1" stop-color="#15B5D9"/>
</linearGradient>
</defs>
</svg>
